<svg xmlns="http://www.w3.org/2000/svg" viewBox="0 0 640 360" role="img" aria-labelledby="title desc">
  <title id="title">California local resource map illustration</title>
  <desc id="desc">A simplified civic map panel with California regions and local service markers.</desc>
  <rect width="640" height="360" rx="8" fill="#f7fbff"/>
  <path d="M0 74h640M0 146h640M0 218h640M0 290h640M92 0v360M184 0v360M276 0v360M368 0v360M460 0v360M552 0v360" stroke="#d8e3ef" stroke-width="2"/>
  <path d="M243 38c28 18 45 38 50 62 5 25-6 39-1 63 4 22 22 38 20 67-2 34-28 60-52 84-16 16-29 7-25-13 5-23-2-42-22-58-20-17-26-36-20-58 6-21 3-38-12-53-22-22-19-47 4-62 16-11 30-19 39-31 6-8 11-9 19-1z" fill="#dff3ec" stroke="#0a7a5c" stroke-width="4"/>
  <circle cx="236" cy="117" r="14" fill="#0a7a5c"/>
  <circle cx="277" cy="199" r="14" fill="#0a7a5c"/>
  <circle cx="224" cy="260" r="14" fill="#0a7a5c"/>
  <path d="M236 108v18M227 117h18M277 190v18M268 199h18M224 251v18M215 260h18" stroke="#fff" stroke-width="4" stroke-linecap="round"/>
  <rect x="382" y="70" width="190" height="44" rx="8" fill="#fff" stroke="#c5d4e3"/>
  <rect x="382" y="137" width="190" height="44" rx="8" fill="#fff" stroke="#c5d4e3"/>
  <rect x="382" y="204" width="190" height="44" rx="8" fill="#fff" stroke="#c5d4e3"/>
  <circle cx="404" cy="92" r="8" fill="#0a7a5c"/>
  <circle cx="404" cy="159" r="8" fill="#f4a000"/>
  <circle cx="404" cy="226" r="8" fill="#1453a6"/>
  <path d="M424 88h95M424 98h126M424 155h86M424 165h132M424 222h102M424 232h119" stroke="#52657a" stroke-width="5" stroke-linecap="round"/>
</svg>
