<svg xmlns="http://www.w3.org/2000/svg" viewBox="0 0 512 512" role="img" aria-labelledby="title">
  <title id="title">Calendar reminders icon</title>
  <rect x="36" y="36" width="440" height="440" rx="88" fill="#fff4dc"/>
  <rect x="102" y="116" width="276" height="282" rx="38" fill="#fff" stroke="#07183f" stroke-width="20"/>
  <path d="M102 194h276" stroke="#0756d9" stroke-width="20"/>
  <path d="M168 88v68M312 88v68" stroke="#008260" stroke-width="28" stroke-linecap="round"/>
  <path d="M156 248h48M236 248h48M156 310h48M236 310h48" stroke="#bcc8db" stroke-width="22" stroke-linecap="round"/>
  <circle cx="178" cy="336" r="58" fill="#008260"/>
  <path d="M152 336l20 21 38-48" fill="none" stroke="#fff" stroke-width="18" stroke-linecap="round" stroke-linejoin="round"/>
  <path d="M386 252c42 0 74 34 74 78v38l28 42H284l28-42v-38c0-44 32-78 74-78Z" fill="#ffa800"/>
  <path d="M359 420c8 18 44 18 52 0" stroke="#07183f" stroke-width="16" stroke-linecap="round"/>
</svg>
